<svg width="90" height="46" viewBox="0 0 90 46" fill="none" xmlns="http://www.w3.org/2000/svg">
<path d="M45.2813 44.9983C46.1725 44.9429 47.0195 44.5909 47.6875 43.9983L87.6875 7.9984C88.0813 7.64598 88.4016 7.2193 88.6302 6.74285C88.8587 6.2664 88.991 5.74958 89.0194 5.22191C89.0478 4.69424 88.9718 4.16614 88.7958 3.6679C88.6197 3.16965 88.3471 2.71102 87.9935 2.31835C87.6399 1.92567 87.2122 1.60666 86.7351 1.37956C86.2579 1.15247 85.7407 1.02174 85.2129 0.994921C84.6852 0.968106 84.1573 1.04569 83.6596 1.22325C83.1619 1.40082 82.7041 1.6749 82.3125 2.02971L45 35.6233L7.68748 2.02971C7.29588 1.6749 6.83811 1.40082 6.3404 1.22325C5.8427 1.04568 5.31484 0.968107 4.78709 0.994921C4.25933 1.02174 3.74206 1.1524 3.26491 1.3795C2.78777 1.6066 2.36013 1.92567 2.00651 2.31835C1.65289 2.71103 1.38024 3.16965 1.20419 3.6679C1.02814 4.16614 0.952152 4.69418 0.980576 5.22185C1.009 5.74952 1.14128 6.26639 1.36983 6.74285C1.59839 7.2193 1.91872 7.64598 2.31248 7.9984L42.3125 43.9983C42.7146 44.3562 43.1848 44.6292 43.6949 44.8011C44.205 44.9729 44.7446 45.04 45.2813 44.9983Z" fill="black"/>
</svg>
