<svg width="48" height="46" viewBox="0 0 48 46" fill="none" xmlns="http://www.w3.org/2000/svg">
<path d="M35 38.5C35.5 38.5 36.1 38.3 36.4 37.9C36.8 37.5 37 37 37 36.4L36.8 31.4C36.8 30.3 35.9 29.5 34.8 29.5H32.3C31.2 29.5 30.3 30.3 30.3 31.4L30.1 36.4C30.1 36.9 30.3 37.5 30.6 37.9C31 38.3 31.5 38.5 32.1 38.5H35Z" fill="black"/>
<path d="M38.9 36.6C38.9 37.6 38.5 38.6 37.8 39.3C37.1 40.1 36 40.5 34.9 40.5H32C30.9 40.5 29.9 40.1 29.1 39.3C28.6 38.7 28.2 38 28.1 37.3H19.8C19.7 38 19.3 38.7 18.8 39.3C18 40.1 17 40.5 15.9 40.5H13C11.9 40.5 10.9 40.1 10.1 39.3C9.4 38.6 9 37.6 9 36.6C6.2 35.6 3.8 34 2 31.8V41.5C2 43.7 3.8 45.5 6 45.5H42C44.2 45.5 46 43.7 46 41.5V31.8C44.1 34 41.7 35.6 38.9 36.6Z" fill="black"/>
<path d="M45 17.5H38.5V15C38.5 7 32 0.5 24 0.5C16 0.5 9.5 7 9.5 15V17.5H3C1.3 17.5 0 18.8 0 20.5V21.1C0 27.1 3.7 32.3 9.1 34.5L9.2 31.4C9.3 29.3 11 27.6 13.2 27.6H15.7C17.8 27.6 19.6 29.3 19.7 31.4L19.9 35.3H28.1L28.3 31.4C28.4 29.2 30.2 27.6 32.3 27.6H34.8C37 27.6 38.7 29.3 38.8 31.4L38.9 34.6C44.3 32.5 48 27.2 48 21.2V20.6C48 18.8 46.7 17.5 45 17.5ZM11.5 17.5V15C11.5 8.1 17.1 2.5 24 2.5C30.9 2.5 36.5 8.1 36.5 15V17.5H11.5Z" fill="black"/>
<path d="M15.9 38.5C16.4 38.5 17 38.3 17.3 37.9C17.7 37.5 17.9 37 17.8 36.4L17.6 31.4C17.6 30.3 16.7 29.5 15.6 29.5H13.1C12 29.5 11.1 30.3 11.1 31.4L10.9 36.4C10.9 36.9 11.1 37.5 11.5 37.9C11.9 38.3 12.4 38.5 12.9 38.5H15.9Z" fill="black"/>
</svg>
