<svg width="89" height="89" viewBox="0 0 89 89" fill="none" xmlns="http://www.w3.org/2000/svg">
<path d="M66.4 60.2C71.5 53.8 74.3 45.7 74.3 37.5C74.3 17.3 57.8 0.800049 37.5 0.800049C17.2 0.800049 0.799999 17.3 0.799999 37.5C0.799999 57.7001 17.3 74.2 37.5 74.2C45.6 74.2 53.7 71.4 60.2 66.3L82.3 88.4L88.6 82.1L66.4 60.2ZM37.5 65.5C22.2 65.5 9.7 53.0001 9.7 37.7001C9.7 22.4001 22.2 9.90005 37.5 9.90005C52.8 9.90005 65.3 22.4001 65.3 37.7001C65.3 53.0001 52.8 65.5 37.5 65.5Z" fill="black"/>
</svg>
